<svg width="920" height="180" viewBox="0 0 920 180" xmlns="http://www.w3.org/2000/svg" role="img" aria-label="Land Takeoffs logo option 3">
  <defs>
    <linearGradient id="g3" x1="0" y1="0" x2="1" y2="1">
      <stop offset="0%" stop-color="#60a5fa"/>
      <stop offset="100%" stop-color="#34d399"/>
    </linearGradient>
  </defs>
  <rect x="10" y="20" width="140" height="140" rx="20" fill="#0a0f1a" stroke="#1f2937" stroke-width="2"/>
  <path d="M30 122 C40 96, 54 84, 72 80 C90 76, 108 66, 126 44" stroke="#6b7280" stroke-width="2" fill="none"/>
  <path d="M30 134 C46 106, 64 96, 82 90 C100 84, 114 72, 126 58" stroke="#4b5563" stroke-width="2" fill="none"/>
  <path d="M30 146 C50 118, 70 108, 90 102 C106 97, 120 86, 126 76" stroke="#374151" stroke-width="2" fill="none"/>
  <path d="M38 120 L58 101 L76 112 L98 88 L122 94" stroke="url(#g3)" stroke-width="5" fill="none" stroke-linecap="round" stroke-linejoin="round"/>
  <rect x="34" y="36" width="24" height="18" fill="none" stroke="#9ca3af" stroke-width="2"/>
  <rect x="58" y="36" width="24" height="18" fill="none" stroke="#9ca3af" stroke-width="2"/>
  <rect x="82" y="36" width="24" height="18" fill="none" stroke="#9ca3af" stroke-width="2"/>
  <text x="180" y="86" fill="#f3f4f6" font-family="Inter, Arial, sans-serif" font-size="52" font-weight="700">LAND TAKEOFFS</text>
  <text x="182" y="118" fill="#94a3b8" font-family="Inter, Arial, sans-serif" font-size="20" letter-spacing="1.2">TOPOGRAPHY · TAKEOFFS · DEVELOPMENT COSTS</text>
</svg>