<svg width="920" height="180" viewBox="0 0 920 180" xmlns="http://www.w3.org/2000/svg" role="img" aria-label="Land Takeoffs finalist 3">
  <defs><linearGradient id="g" x1="0" y1="0" x2="1" y2="1"><stop offset="0%" stop-color="#38bdf8"/><stop offset="100%" stop-color="#22c55e"/></linearGradient></defs>
  <rect x="10" y="20" width="140" height="140" rx="20" fill="#0b1320" stroke="#1f2937" stroke-width="2"/>
  <path d="M28 132 C56 112, 90 118, 132 92" stroke="#4b5563" stroke-width="2" fill="none" opacity="0.9"/>
  <path d="M28 120 C58 100, 90 106, 132 80" stroke="#6b7280" stroke-width="2" fill="none" opacity="0.85"/>
  <path d="M28 108 C62 88, 94 92, 132 68" stroke="#9ca3af" stroke-width="2" fill="none" opacity="0.8"/>
  <path d="M36 44 L92 44 L120 70 L120 126 L36 126 Z" fill="none" stroke="#64748b" stroke-width="2"/>
  <path d="M92 44 V70 H120" fill="none" stroke="#64748b" stroke-width="2"/>
  <path d="M30 125 L58 99 L78 110 L118 62" stroke="url(#g)" stroke-width="5" fill="none" stroke-linecap="round" stroke-linejoin="round"/>
  <circle cx="118" cy="62" r="5" fill="#22c55e"/>
  <text x="180" y="85" fill="#e5e7eb" font-family="Inter, Arial, sans-serif" font-size="52" font-weight="700">LAND TAKEOFFS</text>
  <text x="182" y="118" fill="#9ca3af" font-family="Inter, Arial, sans-serif" font-size="20" letter-spacing="1.5">SITE ANALYSIS · ESTIMATES · PROFORMA</text>
</svg>